<svg xmlns="http://www.w3.org/2000/svg" viewBox="0 0 400 300" width="400" height="300" font-family="sans-serif">
<title>Annealing machine-assisted GNN: compress the graph, solve it on an annealing machine, use partial solutions to guide a GNN solver on the original graph</title>
<defs><marker id="arr" viewBox="0 0 10 10" refX="9" refY="5" markerWidth="7" markerHeight="7" orient="auto-start-reverse"><path d="M0,0 L10,5 L0,10 z" fill="#999999"/></marker></defs>
<rect width="400" height="300" fill="#ffffff"/>
<line x1="40.7" y1="161.7" x2="65.6" y2="146.6" stroke="#999999" stroke-width="1.2"/><line x1="40.7" y1="161.7" x2="48.3" y2="173.4" stroke="#999999" stroke-width="1.2"/><line x1="40.7" y1="161.7" x2="32.0" y2="125.0" stroke="#999999" stroke-width="1.2"/><line x1="91.1" y1="90.6" x2="69.6" y2="113.9" stroke="#999999" stroke-width="1.2"/><line x1="91.1" y1="90.6" x2="96.9" y2="111.9" stroke="#999999" stroke-width="1.2"/><line x1="91.1" y1="90.6" x2="91.0" y2="60.3" stroke="#999999" stroke-width="1.2"/><line x1="91.1" y1="90.6" x2="102.1" y2="63.7" stroke="#999999" stroke-width="1.2"/><line x1="91.1" y1="90.6" x2="105.1" y2="105.7" stroke="#999999" stroke-width="1.2"/><line x1="69.6" y1="113.9" x2="96.9" y2="111.9" stroke="#999999" stroke-width="1.2"/><line x1="69.6" y1="113.9" x2="65.6" y2="146.6" stroke="#999999" stroke-width="1.2"/><line x1="69.6" y1="113.9" x2="105.1" y2="105.7" stroke="#999999" stroke-width="1.2"/><line x1="69.6" y1="113.9" x2="47.3" y2="110.7" stroke="#999999" stroke-width="1.2"/><line x1="82.1" y1="154.6" x2="65.6" y2="146.6" stroke="#999999" stroke-width="1.2"/><line x1="37.5" y1="63.4" x2="32.3" y2="86.6" stroke="#999999" stroke-width="1.2"/><line x1="96.9" y1="111.9" x2="105.1" y2="105.7" stroke="#999999" stroke-width="1.2"/><line x1="91.0" y1="60.3" x2="102.1" y2="63.7" stroke="#999999" stroke-width="1.2"/><line x1="65.6" y1="146.6" x2="48.3" y2="173.4" stroke="#999999" stroke-width="1.2"/><line x1="32.0" y1="125.0" x2="47.3" y2="110.7" stroke="#999999" stroke-width="1.2"/><line x1="47.3" y1="110.7" x2="32.3" y2="86.6" stroke="#999999" stroke-width="1.2"/><circle cx="40.7" cy="161.7" r="5.0" fill="#337ab7" stroke="none" stroke-width="1"/><circle cx="91.1" cy="90.6" r="5.0" fill="#337ab7" stroke="none" stroke-width="1"/><circle cx="69.6" cy="113.9" r="5.0" fill="#337ab7" stroke="none" stroke-width="1"/><circle cx="82.1" cy="154.6" r="5.0" fill="#337ab7" stroke="none" stroke-width="1"/><circle cx="37.5" cy="63.4" r="5.0" fill="#337ab7" stroke="none" stroke-width="1"/><circle cx="96.9" cy="111.9" r="5.0" fill="#337ab7" stroke="none" stroke-width="1"/><circle cx="91.0" cy="60.3" r="5.0" fill="#337ab7" stroke="none" stroke-width="1"/><circle cx="65.6" cy="146.6" r="5.0" fill="#337ab7" stroke="none" stroke-width="1"/><circle cx="48.3" cy="173.4" r="5.0" fill="#337ab7" stroke="none" stroke-width="1"/><circle cx="102.1" cy="63.7" r="5.0" fill="#337ab7" stroke="none" stroke-width="1"/><circle cx="32.0" cy="125.0" r="5.0" fill="#337ab7" stroke="none" stroke-width="1"/><circle cx="105.1" cy="105.7" r="5.0" fill="#337ab7" stroke="none" stroke-width="1"/><circle cx="47.3" cy="110.7" r="5.0" fill="#337ab7" stroke="none" stroke-width="1"/><circle cx="32.3" cy="86.6" r="5.0" fill="#337ab7" stroke="none" stroke-width="1"/><text x="70" y="205" font-size="14" text-anchor="middle" fill="#333333" font-weight="normal" font-style="normal">graph</text><line x1="120" y1="120" x2="155" y2="120" stroke="#999999" stroke-width="2" marker-end="url(#arr)"/><line x1="175" y1="95" x2="215" y2="100" stroke="#999999" stroke-width="2"/><line x1="175" y1="95" x2="180" y2="145" stroke="#999999" stroke-width="2"/><line x1="215" y1="100" x2="220" y2="145" stroke="#999999" stroke-width="2"/><line x1="180" y1="145" x2="220" y2="145" stroke="#999999" stroke-width="2"/><line x1="175" y1="95" x2="220" y2="145" stroke="#999999" stroke-width="2"/><circle cx="175.0" cy="95.0" r="10.0" fill="#337ab7" stroke="none" stroke-width="1"/><circle cx="215.0" cy="100.0" r="10.0" fill="#337ab7" stroke="none" stroke-width="1"/><circle cx="180.0" cy="145.0" r="10.0" fill="#337ab7" stroke="none" stroke-width="1"/><circle cx="220.0" cy="145.0" r="10.0" fill="#337ab7" stroke="none" stroke-width="1"/><text x="197" y="180" font-size="14" text-anchor="middle" fill="#333333" font-weight="normal" font-style="normal">compress</text><line x1="240" y1="120" x2="272" y2="120" stroke="#999999" stroke-width="2" marker-end="url(#arr)"/><rect x="282.0" y="72.0" width="22.0" height="22.0" rx="3" fill="#e8833a" stroke="none" stroke-width="1"/><text x="293" y="88" font-size="13" text-anchor="middle" fill="#ffffff" font-weight="bold" font-style="normal">↑</text><rect x="306.0" y="72.0" width="22.0" height="22.0" rx="3" fill="#337ab7" stroke="none" stroke-width="1"/><text x="317" y="88" font-size="13" text-anchor="middle" fill="#ffffff" font-weight="bold" font-style="normal">↓</text><rect x="330.0" y="72.0" width="22.0" height="22.0" rx="3" fill="#e8833a" stroke="none" stroke-width="1"/><text x="341" y="88" font-size="13" text-anchor="middle" fill="#ffffff" font-weight="bold" font-style="normal">↑</text><rect x="354.0" y="72.0" width="22.0" height="22.0" rx="3" fill="#e8833a" stroke="none" stroke-width="1"/><text x="365" y="88" font-size="13" text-anchor="middle" fill="#ffffff" font-weight="bold" font-style="normal">↑</text><rect x="282.0" y="96.0" width="22.0" height="22.0" rx="3" fill="#337ab7" stroke="none" stroke-width="1"/><text x="293" y="112" font-size="13" text-anchor="middle" fill="#ffffff" font-weight="bold" font-style="normal">↓</text><rect x="306.0" y="96.0" width="22.0" height="22.0" rx="3" fill="#e8833a" stroke="none" stroke-width="1"/><text x="317" y="112" font-size="13" text-anchor="middle" fill="#ffffff" font-weight="bold" font-style="normal">↑</text><rect x="330.0" y="96.0" width="22.0" height="22.0" rx="3" fill="#337ab7" stroke="none" stroke-width="1"/><text x="341" y="112" font-size="13" text-anchor="middle" fill="#ffffff" font-weight="bold" font-style="normal">↓</text><rect x="354.0" y="96.0" width="22.0" height="22.0" rx="3" fill="#e8833a" stroke="none" stroke-width="1"/><text x="365" y="112" font-size="13" text-anchor="middle" fill="#ffffff" font-weight="bold" font-style="normal">↑</text><rect x="282.0" y="120.0" width="22.0" height="22.0" rx="3" fill="#e8833a" stroke="none" stroke-width="1"/><text x="293" y="136" font-size="13" text-anchor="middle" fill="#ffffff" font-weight="bold" font-style="normal">↑</text><rect x="306.0" y="120.0" width="22.0" height="22.0" rx="3" fill="#e8833a" stroke="none" stroke-width="1"/><text x="317" y="136" font-size="13" text-anchor="middle" fill="#ffffff" font-weight="bold" font-style="normal">↑</text><rect x="330.0" y="120.0" width="22.0" height="22.0" rx="3" fill="#337ab7" stroke="none" stroke-width="1"/><text x="341" y="136" font-size="13" text-anchor="middle" fill="#ffffff" font-weight="bold" font-style="normal">↓</text><rect x="354.0" y="120.0" width="22.0" height="22.0" rx="3" fill="#337ab7" stroke="none" stroke-width="1"/><text x="365" y="136" font-size="13" text-anchor="middle" fill="#ffffff" font-weight="bold" font-style="normal">↓</text><rect x="282.0" y="144.0" width="22.0" height="22.0" rx="3" fill="#337ab7" stroke="none" stroke-width="1"/><text x="293" y="160" font-size="13" text-anchor="middle" fill="#ffffff" font-weight="bold" font-style="normal">↓</text><rect x="306.0" y="144.0" width="22.0" height="22.0" rx="3" fill="#e8833a" stroke="none" stroke-width="1"/><text x="317" y="160" font-size="13" text-anchor="middle" fill="#ffffff" font-weight="bold" font-style="normal">↑</text><rect x="330.0" y="144.0" width="22.0" height="22.0" rx="3" fill="#e8833a" stroke="none" stroke-width="1"/><text x="341" y="160" font-size="13" text-anchor="middle" fill="#ffffff" font-weight="bold" font-style="normal">↑</text><rect x="354.0" y="144.0" width="22.0" height="22.0" rx="3" fill="#337ab7" stroke="none" stroke-width="1"/><text x="365" y="160" font-size="13" text-anchor="middle" fill="#ffffff" font-weight="bold" font-style="normal">↓</text><text x="329" y="185" font-size="14" text-anchor="middle" fill="#333333" font-weight="normal" font-style="normal">annealing machine</text><path d="M329,195 Q300,260 190,262" fill="none" stroke="#e8833a" stroke-width="2" stroke-dasharray="5,4" marker-end="url(#arr)"/><text x="270" y="288" font-size="12" text-anchor="middle" fill="#e8833a" font-weight="normal" font-style="normal">partial solutions guide the GNN</text><rect x="110.0" y="238.0" width="75.0" height="44.0" rx="6" fill="#cfe0f1" stroke="#337ab7" stroke-width="1.5"/><text x="147" y="266" font-size="16" text-anchor="middle" fill="#337ab7" font-weight="bold" font-style="normal">GNN</text><text x="200" y="30" font-size="15" text-anchor="middle" fill="#333333" font-weight="bold" font-style="normal">AM + GNN for combinatorial optimization</text>
</svg>
