<svg xmlns="http://www.w3.org/2000/svg" viewBox="0 0 400 300" width="400" height="300" font-family="sans-serif">
<title>Counterfactual learning to rank: estimate position-bias propensities from harvested interventions in click logs</title>
<defs><marker id="arr" viewBox="0 0 10 10" refX="9" refY="5" markerWidth="7" markerHeight="7" orient="auto-start-reverse"><path d="M0,0 L10,5 L0,10 z" fill="#999999"/></marker></defs>
<rect width="400" height="300" fill="#ffffff"/>
<text x="200" y="30" font-size="15" text-anchor="middle" fill="#333333" font-weight="bold" font-style="normal">Position bias from click logs</text><rect x="20.0" y="60.0" width="120.0" height="24.0" rx="4" fill="#cfe0f1" stroke="none" stroke-width="1"/><rect x="28.0" y="68.0" width="60.0" height="8.0" rx="2" fill="#337ab7" stroke="none" stroke-width="1"/><circle cx="125.0" cy="72.0" r="6.0" fill="#e8833a" stroke="none" stroke-width="1"/><rect x="20.0" y="92.0" width="120.0" height="24.0" rx="4" fill="#f8d9c0" stroke="none" stroke-width="1"/><rect x="28.0" y="100.0" width="55.0" height="8.0" rx="2" fill="#337ab7" stroke="none" stroke-width="1"/><circle cx="125.0" cy="104.0" r="6.0" fill="#e8833a" stroke="none" stroke-width="1"/><rect x="20.0" y="124.0" width="120.0" height="24.0" rx="4" fill="#cfe0f1" stroke="none" stroke-width="1"/><rect x="28.0" y="132.0" width="50.0" height="8.0" rx="2" fill="#337ab7" stroke="none" stroke-width="1"/><rect x="20.0" y="156.0" width="120.0" height="24.0" rx="4" fill="#f8d9c0" stroke="none" stroke-width="1"/><rect x="28.0" y="164.0" width="45.0" height="8.0" rx="2" fill="#337ab7" stroke="none" stroke-width="1"/><circle cx="125.0" cy="168.0" r="6.0" fill="#e8833a" stroke="none" stroke-width="1"/><rect x="20.0" y="188.0" width="120.0" height="24.0" rx="4" fill="#cfe0f1" stroke="none" stroke-width="1"/><rect x="28.0" y="196.0" width="40.0" height="8.0" rx="2" fill="#337ab7" stroke="none" stroke-width="1"/><rect x="20.0" y="220.0" width="120.0" height="24.0" rx="4" fill="#cfe0f1" stroke="none" stroke-width="1"/><rect x="28.0" y="228.0" width="35.0" height="8.0" rx="2" fill="#337ab7" stroke="none" stroke-width="1"/><path d="M146,104 Q175,140 146,168" fill="none" stroke="#e8833a" stroke-width="2" marker-end="url(#arr)"/><path d="M146,168 Q165,140 146,110" fill="none" stroke="#e8833a" stroke-width="2" marker-end="url(#arr)"/><text x="80" y="268" font-size="12" text-anchor="middle" fill="#767676" font-weight="normal" font-style="normal">ranked results + clicks</text><text x="185" y="145" font-size="12" text-anchor="start" fill="#e8833a" font-weight="normal" font-style="normal">swap</text><line x1="240" y1="240" x2="385" y2="240" stroke="#333333" stroke-width="1.5"/><line x1="240" y1="240" x2="240" y2="70" stroke="#333333" stroke-width="1.5"/><polyline points="255.0,80.0 280.0,145.9 305.0,173.3 330.0,188.4 355.0,197.9 380.0,204.4" fill="none" stroke="#337ab7" stroke-width="2"/><circle cx="255.0" cy="80.0" r="5.0" fill="#e8833a" stroke="none" stroke-width="1"/><circle cx="280.0" cy="145.9" r="5.0" fill="#e8833a" stroke="none" stroke-width="1"/><circle cx="305.0" cy="173.3" r="5.0" fill="#e8833a" stroke="none" stroke-width="1"/><circle cx="330.0" cy="188.4" r="5.0" fill="#e8833a" stroke="none" stroke-width="1"/><circle cx="355.0" cy="197.9" r="5.0" fill="#e8833a" stroke="none" stroke-width="1"/><circle cx="380.0" cy="204.4" r="5.0" fill="#e8833a" stroke="none" stroke-width="1"/><text x="312" y="262" font-size="12" text-anchor="middle" fill="#767676" font-weight="normal" font-style="normal">position</text><text x="226" y="160" font-size="12" text-anchor="middle" fill="#767676" transform="rotate(-90 226 160)">propensity</text>
</svg>
