<svg xmlns="http://www.w3.org/2000/svg" viewBox="0 0 400 300" width="400" height="300" font-family="sans-serif">
<title>FReM: average many fast regularized models fitted on clustered data into one stable brain map</title>
<defs><marker id="arr" viewBox="0 0 10 10" refX="9" refY="5" markerWidth="7" markerHeight="7" orient="auto-start-reverse"><path d="M0,0 L10,5 L0,10 z" fill="#999999"/></marker></defs>
<rect width="400" height="300" fill="#ffffff"/>
<text x="200" y="30" font-size="15" text-anchor="middle" fill="#333333" font-weight="bold" font-style="normal">Fast regularized ensembles of models</text><clipPath id="f0"><ellipse cx="50" cy="95" rx="30" ry="38"/></clipPath><ellipse cx="50" cy="95" rx="30" ry="38" fill="#ffffff" stroke="#333333" stroke-width="1.5"/><g clip-path="url(#f0)"><circle cx="35.8" cy="85.7" r="9.0" fill="#e8833a" stroke="none" stroke-width="1" fill-opacity="0.75"/><circle cx="65.2" cy="112.3" r="9.0" fill="#e8833a" stroke="none" stroke-width="1" fill-opacity="0.75"/><circle cx="34.9" cy="78.6" r="6.0" fill="#e8833a" stroke="none" stroke-width="1" fill-opacity="0.60"/><circle cx="33.1" cy="78.3" r="6.0" fill="#e8833a" stroke="none" stroke-width="1" fill-opacity="0.60"/></g><line x1="50" y1="57" x2="50" y2="133" stroke="#dddddd" stroke-width="1"/><clipPath id="f1"><ellipse cx="130" cy="95" rx="30" ry="38"/></clipPath><ellipse cx="130" cy="95" rx="30" ry="38" fill="#ffffff" stroke="#333333" stroke-width="1.5"/><g clip-path="url(#f1)"><circle cx="120.1" cy="79.4" r="9.0" fill="#e8833a" stroke="none" stroke-width="1" fill-opacity="0.75"/><circle cx="143.8" cy="105.0" r="9.0" fill="#e8833a" stroke="none" stroke-width="1" fill-opacity="0.75"/><circle cx="120.1" cy="90.8" r="6.0" fill="#e8833a" stroke="none" stroke-width="1" fill-opacity="0.60"/><circle cx="146.2" cy="101.6" r="6.0" fill="#e8833a" stroke="none" stroke-width="1" fill-opacity="0.60"/></g><line x1="130" y1="57" x2="130" y2="133" stroke="#dddddd" stroke-width="1"/><clipPath id="f2"><ellipse cx="50" cy="195" rx="30" ry="38"/></clipPath><ellipse cx="50" cy="195" rx="30" ry="38" fill="#ffffff" stroke="#333333" stroke-width="1.5"/><g clip-path="url(#f2)"><circle cx="33.6" cy="181.0" r="9.0" fill="#e8833a" stroke="none" stroke-width="1" fill-opacity="0.75"/><circle cx="60.3" cy="212.5" r="9.0" fill="#e8833a" stroke="none" stroke-width="1" fill-opacity="0.75"/><circle cx="64.9" cy="213.6" r="6.0" fill="#e8833a" stroke="none" stroke-width="1" fill-opacity="0.60"/><circle cx="65.7" cy="209.9" r="6.0" fill="#e8833a" stroke="none" stroke-width="1" fill-opacity="0.60"/></g><line x1="50" y1="157" x2="50" y2="233" stroke="#dddddd" stroke-width="1"/><clipPath id="f3"><ellipse cx="130" cy="195" rx="30" ry="38"/></clipPath><ellipse cx="130" cy="195" rx="30" ry="38" fill="#ffffff" stroke="#333333" stroke-width="1.5"/><g clip-path="url(#f3)"><circle cx="122.0" cy="186.9" r="9.0" fill="#e8833a" stroke="none" stroke-width="1" fill-opacity="0.75"/><circle cx="141.3" cy="212.3" r="9.0" fill="#e8833a" stroke="none" stroke-width="1" fill-opacity="0.75"/><circle cx="129.4" cy="210.5" r="6.0" fill="#e8833a" stroke="none" stroke-width="1" fill-opacity="0.60"/><circle cx="133.1" cy="190.7" r="6.0" fill="#e8833a" stroke="none" stroke-width="1" fill-opacity="0.60"/></g><line x1="130" y1="157" x2="130" y2="233" stroke="#dddddd" stroke-width="1"/><text x="90" y="260" font-size="12" text-anchor="middle" fill="#999999" font-weight="normal" font-style="normal">models on bagged,</text><text x="90" y="275" font-size="12" text-anchor="middle" fill="#999999" font-weight="normal" font-style="normal">clustered data</text><line x1="185" y1="145" x2="228" y2="145" stroke="#999999" stroke-width="2.5" marker-end="url(#arr)"/><text x="206" y="133" font-size="13" text-anchor="middle" fill="#e8833a" font-weight="bold" font-style="normal">avg</text><clipPath id="fz"><ellipse cx="305" cy="145" rx="62" ry="80"/></clipPath><ellipse cx="305" cy="145" rx="62" ry="80" fill="#ffffff" stroke="#333333" stroke-width="1.5"/><g clip-path="url(#fz)"><circle cx="280.2" cy="121.0" r="20.0" fill="#e8833a" stroke="none" stroke-width="1" fill-opacity="0.95"/><circle cx="332.9" cy="173.0" r="20.0" fill="#e8833a" stroke="none" stroke-width="1" fill-opacity="0.95"/></g><line x1="305" y1="65" x2="305" y2="225" stroke="#dddddd" stroke-width="1"/><text x="305" y="260" font-size="12" text-anchor="middle" fill="#999999" font-weight="normal" font-style="normal">stable map</text>
</svg>
