<svg xmlns="http://www.w3.org/2000/svg" viewBox="0 0 400 300" width="400" height="300" font-family="sans-serif">
<title>Joint estimation of activation and the hemodynamic response function, modeled as a Gaussian process with uncertainty</title>
<defs><marker id="arr" viewBox="0 0 10 10" refX="9" refY="5" markerWidth="7" markerHeight="7" orient="auto-start-reverse"><path d="M0,0 L10,5 L0,10 z" fill="#999999"/></marker></defs>
<rect width="400" height="300" fill="#ffffff"/>
<text x="200" y="30" font-size="15" text-anchor="middle" fill="#333333" font-weight="bold" font-style="normal">HRF as a Gaussian process</text><polyline points="30.0,105.0 33.5,105.0 37.0,105.0 40.5,105.0 44.0,105.0 47.5,105.0 51.0,104.5 54.5,102.8 58.0,99.3 61.5,94.4 65.0,89.0 68.5,84.0 72.0,80.1 75.5,77.8 79.0,77.1 82.5,77.7 86.0,79.5 89.5,81.9 93.0,84.8 96.5,87.7 100.0,90.7 103.5,93.4 107.0,95.9 110.5,98.0 114.0,99.9 117.5,101.5 121.0,102.8 124.5,104.0 128.0,104.9 131.5,105.6 135.0,105.7 138.5,104.4 142.0,101.3 145.5,96.6 149.0,91.4 152.5,86.4 156.0,82.6 159.5,80.2 163.0,79.4 166.5,79.9 170.0,81.0 173.5,81.6 177.0,80.7 180.5,78.7 184.0,76.0 187.5,73.6 191.0,72.0 194.5,71.8 198.0,72.8 201.5,74.9 205.0,77.9 208.5,81.4 212.0,85.0 215.5,88.7 219.0,92.2 222.5,95.3 226.0,98.1 229.5,100.4 233.0,102.4 236.5,104.1 240.0,105.4 243.5,106.4 247.0,107.3 250.5,107.9 254.0,108.3 257.5,108.6 261.0,108.8 264.5,108.8 268.0,108.3 271.5,106.4 275.0,102.8 278.5,97.7 282.0,92.1 285.5,86.8 289.0,82.7 292.5,80.2 296.0,79.2 299.5,79.6 303.0,81.1 306.5,83.3 310.0,86.0 313.5,88.8 317.0,91.6 320.5,94.1 324.0,96.0 327.5,96.3 331.0,94.6 334.5,91.2 338.0,87.1 341.5,83.2 345.0,80.2 348.5,78.6 352.0,78.4 355.5,79.5 359.0,81.6 362.5,84.2 366.0,87.2 369.5,90.3 373.0,93.2 376.5,95.8 380.0,98.2" fill="none" stroke="#337ab7" stroke-width="2"/><line x1="44.0" y1="114" x2="44.0" y2="126" stroke="#e8833a" stroke-width="3"/><line x1="128.0" y1="114" x2="128.0" y2="126" stroke="#e8833a" stroke-width="3"/><line x1="163.0" y1="114" x2="163.0" y2="126" stroke="#e8833a" stroke-width="3"/><line x1="261.0" y1="114" x2="261.0" y2="126" stroke="#e8833a" stroke-width="3"/><line x1="317.0" y1="114" x2="317.0" y2="126" stroke="#e8833a" stroke-width="3"/><text x="30" y="58" font-size="12" text-anchor="start" fill="#999999" font-weight="normal" font-style="normal">BOLD signal</text><text x="380" y="140" font-size="11" text-anchor="end" fill="#e8833a" font-weight="normal" font-style="normal">stimuli</text><polygon points="90.0,220.8 94.4,220.3 98.8,218.7 103.2,213.9 107.6,204.8 112.0,192.1 116.4,178.2 120.8,165.3 125.2,155.3 129.6,149.1 134.0,146.8 138.4,148.0 142.8,151.9 147.2,157.6 151.6,164.3 156.0,171.4 160.4,178.2 164.8,184.6 169.2,190.4 173.6,195.4 178.0,199.7 182.4,203.2 186.8,206.2 191.2,208.6 195.6,210.5 200.0,211.9 204.4,213.0 208.8,213.7 213.2,214.1 217.6,214.3 222.0,214.2 226.4,214.0 230.8,213.5 235.2,213.0 239.6,212.3 244.0,211.6 248.4,210.8 252.8,210.0 257.2,209.1 261.6,208.2 266.0,207.4 270.4,206.6 274.8,205.8 279.2,205.0 283.6,204.3 288.0,203.5 292.4,202.9 296.8,202.2 301.2,201.6 305.6,201.0 310.0,200.5 310.0,250.9 305.6,250.6 301.2,250.3 296.8,250.1 292.4,249.9 288.0,249.7 283.6,249.6 279.2,249.5 274.8,249.4 270.4,249.4 266.0,249.4 261.6,249.4 257.2,249.4 252.8,249.4 248.4,249.4 244.0,249.4 239.6,249.3 235.2,249.1 230.8,248.8 226.4,248.4 222.0,247.8 217.6,247.0 213.2,246.0 208.8,244.8 204.4,243.2 200.0,241.3 195.6,239.0 191.2,236.3 186.8,233.1 182.4,229.3 178.0,224.9 173.6,219.7 169.2,213.9 164.8,207.3 160.4,200.1 156.0,192.4 151.6,184.5 147.2,177.0 142.8,170.4 138.4,165.7 134.0,163.6 129.6,165.0 125.2,170.4 120.8,179.6 116.4,191.6 112.0,204.7 107.6,216.5 103.2,224.8 98.8,228.8 94.4,229.6 90.0,229.2" fill="#cfe0f1"/><line x1="90" y1="225" x2="310" y2="225" stroke="#999999"/><polyline points="90.0,225.0 94.4,224.9 98.8,223.8 103.2,219.4 107.6,210.6 112.0,198.4 116.4,184.9 120.8,172.4 125.2,162.8 129.6,157.1 134.0,155.2 138.4,156.9 142.8,161.2 147.2,167.3 151.6,174.4 156.0,181.9 160.4,189.2 164.8,196.0 169.2,202.1 173.6,207.6 178.0,212.3 182.4,216.3 186.8,219.6 191.2,222.4 195.6,224.7 200.0,226.6 204.4,228.1 208.8,229.2 213.2,230.1 217.6,230.7 222.0,231.0 226.4,231.2 230.8,231.2 235.2,231.1 239.6,230.8 244.0,230.5 248.4,230.1 252.8,229.7 257.2,229.3 261.6,228.8 266.0,228.4 270.4,228.0 274.8,227.6 279.2,227.3 283.6,226.9 288.0,226.6 292.4,226.4 296.8,226.2 301.2,226.0 305.6,225.8 310.0,225.7" fill="none" stroke="#e8833a" stroke-width="2.5"/><text x="318" y="175" font-size="13" text-anchor="start" fill="#e8833a" font-weight="normal" font-style="normal">HRF ± GP</text><text x="200.0" y="280" font-size="12" text-anchor="middle" fill="#999999" font-weight="normal" font-style="normal">time after stimulus</text>
</svg>
